<svg xmlns="http://www.w3.org/2000/svg" viewBox="0 0 1768.05 289.72"><defs><style>.cls-1{fill:#98d3ff;}.cls-2{fill:#46a6ff;}</style></defs><g id="Layer_2" data-name="Layer 2"><g id="Layer_1-2" data-name="Layer 1"><path d="M574.17,156.05l51.43-7.91c11.87-1.76,15.83-7.48,15.83-14.95,0-12.75-11-23.74-32.09-23.74-23.3,0-36.05,15.83-37.36,32.09l-58-11.87c2.64-31.21,31.65-72.53,95.83-72.53,70.77,0,96.7,39.56,96.7,84.4V248.36a214.61,214.61,0,0,0,2.64,33.85H648.9c-.44-1.76-2.2-9.67-2.2-24.62-11.43,18.46-32.53,30.77-61.54,30.77-47.91,0-75.6-31.65-75.6-66.38C509.56,183.3,538.13,161.32,574.17,156.05Zm67.26,40.44v-9.67l-41.32,6.59c-14.07,2.2-24.62,8.79-24.62,24.18C575.49,229,583,240,601.43,240,621.21,240,641.43,230.34,641.43,196.49Z"/><path d="M862.53,260.23C851.1,279.13,826,287,804.07,287,750.88,287,721,248.36,721,201.76v-138H787.8v124c0,21.1,11.43,37.8,35.17,37.8,22.42,0,36.48-15.38,36.48-37.36V63.74h66.82V243.08a342.55,342.55,0,0,0,2.2,39.13H864.29C863.41,278.25,862.53,265.94,862.53,260.23Z"/><path d="M1043.2,63.74h42.63V122.2H1043.2V204c0,18,9.67,22.86,24.17,22.86a82.19,82.19,0,0,0,17.58-2.2V280c-2.63,1.32-13.62,6.15-34.72,6.15-45.28,0-73-26.81-73-70.33V122.2H938.58V63.74h11c22.85,0,33.84-15.39,33.84-35.61V0h59.79Z"/><path d="M1320.56,172.75c0,67.7-50.55,116.05-116,116.05-65.06,0-116-48.35-116-116s51-115.61,116-115.61C1270,57.14,1320.56,105.06,1320.56,172.75Zm-66.81,0c0-36.92-23.74-54.07-49.23-54.07-25.06,0-49.24,17.15-49.24,54.07,0,36.49,24.18,54.51,49.24,54.51C1230,227.26,1253.75,209.68,1253.75,172.75Z"/><path d="M1400.13,282.21h-66.82V63.74h64.62V88.79C1409.8,68.13,1436.61,58,1459,58c55,0,79.56,39.13,79.56,87V282.21h-66.81V156.49c0-21.54-11.43-37.81-35.61-37.81-22,0-36,16.27-36,38.25Z"/><path d="M1764.09,219.35c-10.55,37.8-45.28,69.45-100.66,69.45-60.22,0-113.85-43.08-113.85-116.49,0-70.33,52.31-115.17,109-115.17,67.69,0,109.46,41.76,109.46,112.09,0,9.24-.88,19.35-1.32,20.66h-152.1c1.32,24.62,23.74,42.2,49.68,42.2,24.17,0,37.8-11.42,44-28.57Zm-60.66-72.53c-.88-16.71-12.31-36.93-44-36.93-28.13,0-42.2,20.66-43.52,36.93Z"/><circle class="cls-1" cx="256.58" cy="209" r="80.72"/><path class="cls-2" d="M142.64,3.66h95A29.26,29.26,0,0,1,263.81,46L150.47,272.68a29.26,29.26,0,0,1-26.17,16.18h-95A29.26,29.26,0,0,1,3.13,246.51L116.47,19.83A29.26,29.26,0,0,1,142.64,3.66Z"/></g></g></svg>